<?xml version="1.0" encoding="utf-8"?>
<!-- Generator: Adobe Illustrator 19.1.0, SVG Export Plug-In . SVG Version: 6.00 Build 0)  -->
<svg xmlns:xlink="http://www.w3.org/1999/xlink" version="1.1" id="Calque_1" xmlns="http://www.w3.org/2000/svg" x="0px" y="0px"
	 viewBox="0 0 541.5 417.9" style="enable-background:new 0 0 541.5 417.9;" xml:space="preserve">
<style type="text/css">
	.st0{fill:#EE757F;}
	.st1{fill:#D95756;}
	.st2{fill:#FFFFFF;}
	.st3{fill:#E8DADA;}
	.st4{fill:none;stroke:#571D45;stroke-miterlimit:10;}
	.st5{fill:#571D45;}
	.st6{fill:#F8B792;}
</style>
<g id="fox">
  <path class="st0" d="M498.7,215.5c-1.6-4.5,4.7-17.3,4.7-17.3c11-24.3-8.9-50.5-8.9-50.5c-19.7-12.9-29.8-12-29.8-12
    s-20.7-1.6-25,2.6c0,0-20,10.3-32.6,30.4c0,0-4.3,5.7-2.3,17.8c0,0-6.7-10.8-18.7-14.5s-13.4,1-34.4-10.4
    c-21-11.5-43-21.1-60.6-15.5c-14.7,4.7-22.1,12.5-30.1,20.1l161.9,76.9c-19.8,17-19.9,25.3-17.6,26.7c2.3,1.3,8-5.3,8-5.3
    c-6.7,14.3-1,17.3-0.7,18c0.3,0.7,5.6,4.7,15.9-6.7c-4.4,8.3,0,19.3,0,19.3c6.3,15,16.1,5,16.1,5c3-1.7,8-10.3,8.3-25
    c1.7,7.3,9,12.7,11.3,9.7c2.3-3-1-15-7.3-23.3c-6.3-8.3-9.2-21.5-2.3-27c5.2-4.1,14.7,1.1,14.7,1.1c10.8,5.4,27.3,5.2,27.3,5.2
    c6.2,0.2,14.3-8.5,14.3-11.7C511,224.8,501.4,223.2,498.7,215.5z"/>
  <path class="st1" d="M478.2,196.2c0,0,0.7-7-5.6-14c6.8,12.7,1.1,24.4,0,28.7C471.5,215.1,478.8,206.9,478.2,196.2z"/>
  <path class="st1" d="M440.9,298c0,0-5.3,44.2-6,49.2c-0.7,5,6.4,20.6,12.4,27.9s-7.3,15.7-7.3,15.7l-6.4-1.7c0,0-10.6-14.7-13.3-22
    c-2.7-7.3-10-24.3-10-24.3l3.1-78.3C413.4,264.5,447.2,273,440.9,298z"/>
  <path class="st2" d="M434.4,403.1c0,0,12.5,4.8,20.1,4.8c4,0,7.3-25.5-2-29C443.2,375.6,429.3,385.2,434.4,403.1z"/>
  <path class="st2" d="M446.6,402.6c0,0,12.5,4.8,20.1,4.8c4,0,7.3-25.5-2-29S441.5,384.7,446.6,402.6z"/>
  <path class="st2" d="M456.5,400.8c0,0,12.5,4.8,20.1,4.8c4,0,7.3-25.5-2-29C465.3,373.3,451.4,382.9,456.5,400.8z"/>
  <path class="st1" d="M315.8,289.9c0,0-14.3,2.7,32.2,83.6c9,3.5,16,0,16,0s-28-51.2-17.5-62.6c10.5-11.4,5.2-43.8,5.2-43.8
    S315.1,270.9,315.8,289.9"/>
  <path class="st2" d="M387.4,296.8c0,0-22.2-1.5-27.4-4.3c-5.1-2.7-14.4-0.7-12.9-4.7c1.5-4.1,7-2.4,7-2.4s-18.6-4.5-27.8-2.6
    c-9.2,1.9-33.7-22.9-33.7-22.9l74.4-22.6l16.4,32.7L387.4,296.8z"/>
  <path class="st2" d="M432,279.3c0,0,0.8,16.5-5.8,22c-6.7,5.5-14.3,3.5-16,9c-1.7,5.5-8.8-26-8.8-26l22.7-25.5L432,279.3z"/>
  <path class="st0" d="M413.3,290.5c0,0,3,64,2.3,72.7c-0.7,8.7,1.3,26.3-3.3,29c-4.7,2.7-7-8.3-7-8.3h-15c0,0,5.3-19.6,4.3-40.3
    s-21.3-51-24.7-58s-4.3-22.4-5-26.8c-13.5,2-30.9,1-38.2,0l-63-70.2c0,0,23.6-29.5,47.6-29.9c24-0.3,112.3,71.1,112.3,71.1l16,14.2
    l-13.3,26.6L413.3,290.5z"/>
  <path class="st2" d="M418.7,247.2c0.5-0.3,19.3-14.2,20.9-17.4c0.9-1.7,1.4-6.3,1.7-10.2c-13.9-2-16.4-5.7-17.7-7.7
    c-1.3-2,0-5.3,9.8-2c-11-7.2-7.3-15.5-6.2-16.5c1.2-1,1.8-1.3,7,2.2c2.2,1.5,4.3,3.5,5.9,5.4v0c0,0,11-1.9,14.4,2.1
    c2,2.4,1.4,3.2,2.9,4.5c0.7,0.5,8.7,4.7,8.7,4.7l12.5-3.7l5.1,2.1c1.2,2.4,4.7,8.9,10.6,9.3c3.5,0.2,4.4-0.6,5.4-1.8
    c3.1,2,6.3,5.9,10.5,8.3c4,2.2-2.9,5-0.5,6.1c-2.6,3.8-8.3,8.6-13,8.5c0,0-16.6,0.2-27.3-5.2c0,0-9.5-5.2-14.7-1.1
    c-6.8,5.5-4,18.7,2.3,27c6.3,8.3,9.7,20.3,7.3,23.3s-9.7-2.3-11.3-9.7c-0.3,14.7-5.3,23.3-8.3,25c0,0-9.8,10-16.1-5
    c0,0-4.4-11,0-19.3c-10.4,11.3-15.6,7.3-15.9,6.7c-0.3-0.7-6-3.7,0.7-18c0,0-5.7,6.7-8,5.3C403.5,268.6,403.4,261.5,418.7,247.2z"/>
  <path class="st1" d="M325,221.5c14.1,15.4,15.3,40.7,15,36.8c-4.3,0.2-8.2-0.6-11.3-1l-1.1-1.6C327.5,248.4,324.8,233.6,325,221.5z"/>
  <path class="st0" d="M328.6,240.5c0,0,9.3,28.8,0,40c-3.3,4-26.5,16.2-25.5,24.2c2.2,19,16,58,33,70.8c10.6,7.9-27.5,0-27.5,0
    s-39.8-59.3-43.5-75.3c0,0-4.1-17.6,2.5-24.6s-22-36.6-22.5-48.6s-5-43.5,12-59S328.6,240.5,328.6,240.5z"/>

  <g>
    <path class="st3" d="M341.4,394.4c0,0,12.5,4.8,20.1,4.8c4,0,7.3-25.5-2-29C350.3,366.9,336.3,376.5,341.4,394.4z"/>
    <path class="st3" d="M353.6,393.8c0,0,12.5,4.8,20.1,4.8c4,0,7.3-25.5-2-29C362.5,366.3,348.6,375.9,353.6,393.8z"/>
    <path class="st3" d="M363.5,392.1c0,0,12.5,4.8,20.1,4.8c4,0,7.3-25.5-2-29S358.5,374.2,363.5,392.1z"/>
  </g>

  <g>
    <path class="st2" d="M307.5,394.4c0,0,12.5,4.8,20.1,4.8c4,0,7.3-25.5-2-29C316.3,366.9,302.4,376.5,307.5,394.4z"/>
    <path class="st2" d="M319.7,393.8c0,0,12.5,4.8,20.1,4.8c4,0,7.3-25.5-2-29S314.6,375.9,319.7,393.8z"/>
    <path class="st2" d="M329.6,392.1c0,0,12.5,4.8,20.1,4.8c4,0,7.3-25.5-2-29C338.4,364.5,324.5,374.2,329.6,392.1z"/>
  </g>

  <path class="st4" d="M478.2,201.9c0,0-5.6,8.1-14.4,5.6"/>

  <g id="muzzle">
    <path class="st5" d="M508.8,233.8c0,0-9,1.8-14.4,0.6c-2.4-0.5-4.5-4.5-2.8-6.2c1.7-1.7,6.7-2.8,13.8-3.3c7.2-0.5,7.3,3.6,6.8,4.9
      C511.8,231,510.4,233.7,508.8,233.8z"/>
  </g>

  <g>
    <path class="st5" d="M485.9,211.2c0,0-4.9-0.7-7-7c-0.2-3.2-0.7-8-0.7-8c-0.3,7.7-2.5,10.5-3.2,11.2c-2.8,1.9-7,3.8-11.2,2.1
      c-5.5-2.1-7.5-3.8-9.2-6.5c2.2,6.8,8.3,11.2,15.2,11.9c0,0,6,0.7,12.5-3.9C483,211.2,484.2,211.3,485.9,211.2z"/>
  </g>

  <path class="st2" d="M421.4,390.3c0,0-1.7,15.7-6.5,15.8c-4.8,0.2-10.8,1.8-11.8-1.2s-4.7-13.8,4.2-22.3
    C416.1,374.1,423.1,385.9,421.4,390.3z"/>
  <path class="st2" d="M407.4,390.3c0,0-1.7,15.7-6.5,15.8c-4.8,0.2-10.8,1.8-11.8-1.2s-4.7-13.8,4.2-22.3
    C402,374.1,409,385.9,407.4,390.3z"/>
  <path class="st2" d="M395.9,387.9c0,0-1.7,15.7-6.5,15.8c-4.8,0.2-10.8,1.8-11.8-1.2s-4.7-13.8,4.2-22.3
    C390.5,371.8,397.5,383.6,395.9,387.9z"/>

  <g id="ear_l">
    <path class="st0" d="M431.9,94.7c-10.2-9.3-18.2-15.7-19.4-17.5c-3.8,19.8-15.3,51.1-9.6,68.9c4.7,14.7,11.3,17.7,11.3,17.7
      c29.3,0.5,34.6-24.9,34.6-24.9C449.6,121.9,448,109.4,431.9,94.7z"/>
    <path class="st5" d="M432,128.2c-8,2.6-19.9,6.9-30.4-1.3c1.7-16.5,8.1-35.8,10.8-49.6c1.2,1.8,9.2,8.2,19.4,17.5
      c6.4,5.9,10.6,11.4,13.1,17C442,119.8,438.2,126.2,432,128.2z"/>
    <path class="st6" d="M434.2,144.5c0,0,0.6-8.1-7.2-20c0.7,13.8-5.1,17.4-1.2,27.4C427.5,150.5,430,146.2,434.2,144.5z"/>
  </g>

  <path class="st1" d="M497.9,175.8c0,0-5.8-5-8.5,7.5s9.9,16.7,11.9,9S504.9,181.6,497.9,175.8z"/>
  <path class="st2" d="M497.2,182.8c0,0-3.5-3-5,4.4c-1.6,7.4,5.8,9.9,7.1,5.4S501.3,186.2,497.2,182.8z"/>

  <g id="ear_r">
    <path class="st0" d="M511.4,120.8c-2.3-22.3,6.9-25.8,5.6-26.6c-12.8-0.3-48.6-1.4-55.2,45.1c0,0,23.3,15.3,36.5,17.2
      C498.3,156.6,513.6,143.1,511.4,120.8z"/>
    <path class="st5" d="M511.6,125.4c0-1.5-0.1-3-0.2-4.6c-2.3-22.3,6.9-25.8,5.6-26.6c-11.1-0.3-39.5-1.1-51.1,28.9
      c12.1-2.6,14.1,5.5,20.6,7.4C498.7,134,507.1,127.1,511.6,125.4z"/>
    <path class="st6" d="M491.9,147.8c0,0,11.2-10,8.8-35.5c-2.7,10.7-7,15.6-12.2,23.4c0,0-2.6,4.9-1.2,9.4
      C487.3,145,490.7,146.5,491.9,147.8z"/>
  </g>

  <g id="tail">
    <path class="st0" d="M256.6,154.1c0,0,4.6-28.2-5.3-29.7s-2.6,18.5-2.6,18.5s-19.5-30.7-33.7-30.1c-14.2,0.6-2.5,15.6-2.5,15.6
      s-30.6-29.8-68.2-24.2c-37.6,5.6-66.4-26.8-45.6-51.1c15.1-17.6,37.7-17.2,53,5c9.2,7,13-9.7,5-21.2c-9.9-14.1-49.4-66-122.9-14.7
      c-81.6,57-0.1,171.6,65.5,165.9c65.6-5.7,78.5-22.2,91.3-21.3c0,0-15.1,6.3-11.8,12.8c3.4,6.6,38.2-15.1,60-4.9s24.8-8.2,24.8-8.2
      L256.6,154.1"/>
  </g>
</g>
</svg>
